<svg width="24" height="24" viewBox="0 0 24 24" fill="none" xmlns="http://www.w3.org/2000/svg">
<mask id="mask0_1746_196569" style="mask-type:alpha" maskUnits="userSpaceOnUse" x="0" y="0" width="24" height="24">
<rect width="24" height="24" fill="#D9D9D9"/>
</mask>
<g mask="url(#mask0_1746_196569)">
<path d="M11.7666 19.3314L11.726 19.3376L11.6898 19.3569L6.50648 22.1201C6.29607 22.2271 6.06038 22.2744 5.82498 22.2568C5.58892 22.2392 5.36222 22.1571 5.16964 22.0193C4.97706 21.8816 4.826 21.6935 4.73296 21.4757C4.63992 21.2578 4.60849 21.0186 4.6421 20.7841L4.64226 20.7841L4.64318 20.7755C4.76751 19.6099 5.02616 18.4626 5.41394 17.3565C5.80076 16.7081 6.45106 16.0699 7.22813 15.4731C8.01029 14.8725 8.90625 14.3248 9.75633 13.8608C10.6058 13.397 11.4053 13.0189 11.9926 12.7568C12.2861 12.6257 12.5263 12.5238 12.6928 12.4547C12.776 12.4202 12.8408 12.3939 12.8847 12.3763L12.9343 12.3565L12.9468 12.3516L12.9498 12.3504L12.9505 12.3502L12.9506 12.3501L12.9506 12.3502L12.9552 12.3483C13.0526 12.3079 13.1395 12.2516 13.2039 12.1809C13.2631 12.1161 13.3308 12.0064 13.3108 11.8715C13.2876 11.7149 13.1658 11.6312 13.0587 11.6007C12.9572 11.5718 12.8415 11.5779 12.7253 11.6018L12.7253 11.6015L12.7141 11.6043L12.7735 11.8364L12.714 11.6044L12.7139 11.6044L12.7131 11.6046L12.7098 11.6054L12.6963 11.6089L12.6428 11.6223C12.5957 11.634 12.526 11.6512 12.4363 11.6729C12.2567 11.7163 11.997 11.7776 11.6768 11.8493C11.0362 11.9926 10.1548 12.177 9.19084 12.3414C8.22626 12.5059 7.18248 12.6497 6.21635 12.7128C5.24892 12.776 4.37864 12.7568 3.74686 12.6066C3.51684 12.536 3.23937 12.3656 2.94173 12.1291C2.64547 11.8937 2.34655 11.6069 2.07792 11.3264C1.80985 11.0465 1.57512 10.7763 1.40729 10.5758C1.32346 10.4757 1.25654 10.3932 1.21073 10.336C1.18784 10.3074 1.17023 10.2851 1.15844 10.2701L1.14518 10.2531L1.14196 10.249L1.14121 10.248L1.14106 10.2478L1.14104 10.2478L1.13131 10.2352L1.11997 10.224C0.952061 10.0578 0.833295 9.84835 0.776795 9.61886C0.720296 9.38936 0.728263 9.14871 0.799817 8.92346C0.871371 8.69821 1.00372 8.49713 1.18226 8.34241C1.36039 8.18803 1.57759 8.08579 1.80998 8.04688L7.60419 7.16578L7.61935 7.16348L7.6341 7.15926C7.89382 7.08492 8.11394 6.91152 8.24711 6.67644L8.25081 6.6699L8.2541 6.66314L10.7954 1.43773C10.9041 1.22773 11.0684 1.05159 11.2702 0.928491C11.4727 0.804938 11.7054 0.739583 11.9426 0.739583C12.1799 0.739583 12.4125 0.804938 12.6151 0.928491C12.8173 1.05185 12.9818 1.22848 13.0905 1.43907C13.0907 1.4394 13.0909 1.43973 13.091 1.44006L15.7064 6.64364C15.7344 6.75435 15.8191 6.82372 15.8651 6.85618C15.9332 6.90432 16.0192 6.94352 16.1077 6.97679C16.2877 7.04445 16.5347 7.10805 16.8182 7.16801C17.3884 7.28863 18.147 7.4029 18.9094 7.50443C19.5937 7.59557 20.2863 7.67712 20.8555 7.74415C20.9214 7.75191 20.9857 7.75947 21.0481 7.76684C21.3494 7.80239 21.6064 7.83312 21.7982 7.85834C21.8942 7.87097 21.9721 7.88199 22.0303 7.89136C22.0957 7.9019 22.1184 7.90772 22.1173 7.90735L22.1378 7.9142L22.1593 7.91726C22.395 7.95087 22.6168 8.04952 22.7996 8.20216C22.9825 8.35481 23.1193 8.55542 23.1946 8.78151C23.2699 9.0076 23.2808 9.25022 23.2261 9.48216C23.1713 9.71389 23.0532 9.92579 22.885 10.0941C22.8849 10.0943 22.8847 10.0945 22.8846 10.0946L18.6963 14.2253C18.6548 14.2523 18.6255 14.2868 18.6061 14.3166C18.5771 14.3614 18.5613 14.4087 18.5519 14.4465C18.5328 14.5225 18.5264 14.6127 18.5255 14.7036C18.5236 14.8893 18.5446 15.1383 18.5793 15.4222C18.6491 15.9931 18.7792 16.7425 18.9195 17.4916C19.0182 18.019 19.1227 18.55 19.2154 19.0216C19.2545 19.2204 19.2916 19.4086 19.3252 19.5815C19.3821 19.8741 19.4292 20.1222 19.4608 20.3057C19.4767 20.3977 19.4882 20.471 19.495 20.5244C19.4985 20.5512 19.5005 20.5706 19.5014 20.5835C19.5015 20.5854 19.5016 20.5871 19.5017 20.5885L19.4976 20.6179L19.5059 20.6581C19.5546 20.8948 19.5354 21.1405 19.4506 21.3668C19.3659 21.5931 19.219 21.7908 19.0268 21.9372C18.8347 22.0836 18.6051 22.1727 18.3646 22.1942C18.1246 22.2157 17.8834 22.1691 17.6687 22.0597C17.6682 22.0595 17.6678 22.0593 17.6673 22.0591L12.4447 19.3063L12.3923 19.2786H12.333L12.309 19.2786C12.1688 19.2786 12.1032 19.2786 12.038 19.2867C12.0094 19.2903 11.9806 19.2955 11.9503 19.301C11.9456 19.3018 11.9409 19.3026 11.9362 19.3035C11.8982 19.3103 11.8465 19.3193 11.7666 19.3314Z" fill="url(#paint0_linear_1746_196569)" stroke="#C65300" stroke-width="0.479167"/>
<g style="mix-blend-mode:overlay">
<path fill-rule="evenodd" clip-rule="evenodd" d="M11.3236 18.1238L11.5777 18.0852C11.6439 18.0752 11.6842 18.0681 11.7145 18.0627C11.7161 18.0624 11.7184 18.062 11.7213 18.0615C11.7461 18.057 11.8146 18.0444 11.8816 18.0361C11.9776 18.0241 12.0594 18.0206 12.1275 18.0193C12.1822 18.0182 12.2496 18.0182 12.3201 18.0182H12.7041L18.2426 20.9375C18.2456 20.9387 18.2489 20.9391 18.2521 20.9388C18.256 20.9385 18.2598 20.937 18.263 20.9346C18.2662 20.9321 18.2688 20.9287 18.2703 20.9247C18.2718 20.9206 18.2722 20.9162 18.2713 20.9119L18.2195 20.6599L18.2298 20.5854C18.2266 20.566 18.2229 20.5441 18.2187 20.5195C18.1896 20.3509 18.1449 20.1147 18.088 19.8222C18.0553 19.654 18.0188 19.4688 17.9801 19.2719C17.8869 18.7982 17.7804 18.257 17.6806 17.7235C17.5398 16.9717 17.4032 16.1887 17.3282 15.5752C17.2919 15.2781 17.2624 14.9622 17.2651 14.6908C17.2664 14.5671 17.2741 14.3599 17.3294 14.1397C17.3568 14.0305 17.4154 13.8363 17.5487 13.6307C17.6177 13.5243 17.7212 13.3943 17.8657 13.2742L21.9942 9.20245C21.9967 9.1997 21.9985 9.19628 21.9994 9.19249C22.0004 9.18832 22.0002 9.18395 21.9988 9.1799C21.9975 9.17587 21.9951 9.17239 21.992 9.1698C21.9889 9.16721 21.9852 9.16561 21.9814 9.16506L21.8471 9.14593L21.8049 9.13184C21.7648 9.12574 21.7086 9.11783 21.6338 9.108C21.4517 9.08405 21.2031 9.05429 20.9004 9.01857C20.8382 9.01124 20.7741 9.00368 20.7081 8.99592C20.1398 8.929 19.4375 8.84631 18.743 8.75381C17.9757 8.65162 17.1772 8.53226 16.5574 8.40114C16.2575 8.33772 15.9355 8.25858 15.6642 8.15661C15.538 8.10916 15.3354 8.02526 15.1377 7.88556C15.0494 7.82313 14.7072 7.5751 14.5358 7.12128L11.9696 2.01559C11.9669 2.01101 11.9632 2.00723 11.9588 2.00455C11.9538 2.00155 11.9483 2 11.9426 2C11.937 2 11.9314 2.00155 11.9265 2.00455C11.9228 2.00681 11.9195 2.00985 11.917 2.01349L9.36699 7.25673L9.34379 7.29768C9.04782 7.82017 8.55848 8.2057 7.98094 8.37101L7.88862 8.39744L2.01603 9.29045C2.01303 9.29128 2.01019 9.29278 2.00773 9.29491C2.0047 9.29754 2.00236 9.30103 2.00108 9.30506C1.9998 9.30909 1.99965 9.31343 2.00067 9.31755C2.00168 9.32167 2.00379 9.32534 2.00667 9.32818L2.07766 9.39845L2.13807 9.4767L2.1387 9.47752L2.13972 9.47882L2.14968 9.49155C2.15922 9.50369 2.17442 9.52294 2.19477 9.54836C2.23552 9.59928 2.29656 9.67452 2.37376 9.76674C2.52925 9.95248 2.74484 10.2005 2.9882 10.4546C3.23495 10.7123 3.49041 10.9552 3.72586 11.1423C3.93387 11.3076 4.0581 11.374 4.0997 11.3941C4.54719 11.4885 5.24241 11.5133 6.13419 11.4551C7.04105 11.3959 8.03822 11.2593 8.97897 11.0989C9.91598 10.9391 10.7754 10.7594 11.4015 10.6193C11.714 10.5494 11.9667 10.4897 12.1402 10.4477C12.2269 10.4268 12.2937 10.4103 12.3381 10.3992L12.3875 10.3868L12.3991 10.3839L12.4014 10.3833L12.4365 10.3743L12.4719 10.3671C12.6857 10.3232 13.0282 10.2814 13.4041 10.3885C13.8147 10.5055 14.4388 10.8845 14.5576 11.6868C14.6564 12.354 14.318 12.8297 14.1354 13.03C13.9197 13.2667 13.6654 13.4184 13.4373 13.5128L13.423 13.5188L13.4091 13.5242L13.398 13.5285L13.3544 13.5459C13.3147 13.5619 13.2543 13.5864 13.1757 13.619C13.0183 13.6843 12.7885 13.7818 12.5064 13.9077C11.9405 14.1603 11.1726 14.5236 10.3603 14.9671C9.54397 15.4127 8.70864 15.9254 7.99581 16.4728C7.32508 16.9879 6.83988 17.4757 6.55872 17.9029C6.22781 18.8773 6.00567 19.8856 5.89648 20.9092L5.89361 20.9361L5.88977 20.963C5.88891 20.969 5.88972 20.9751 5.89208 20.9806C5.89444 20.9861 5.89823 20.9908 5.90293 20.9942C5.90763 20.9975 5.91309 20.9995 5.9187 20.9999C5.92323 21.0003 5.92778 20.9996 5.93204 20.998L11.3236 18.1238ZM6.6172 22.3325C6.36723 22.4602 6.08702 22.5166 5.80716 22.4958C5.5273 22.4749 5.25855 22.3775 5.03026 22.2142C4.80196 22.0509 4.6229 21.828 4.51263 21.5698C4.40235 21.3116 4.3651 21.028 4.40495 20.7501C4.53208 19.5582 4.79747 18.3852 5.19575 17.2547C5.86686 16.1137 7.28307 15.0438 8.71793 14.1796C9.82913 13.5103 10.9515 12.9643 11.7477 12.6042C12.3232 12.3438 12.7282 12.1806 12.8354 12.138C12.8408 12.1359 12.8454 12.134 12.8493 12.1325C12.8587 12.1288 12.8636 12.1269 12.8636 12.1269C13.1539 12.0067 13.1639 11.7563 12.7735 11.8364C12.7735 11.8364 12.7663 11.8383 12.7524 11.8418C12.7505 11.8423 12.7484 11.8428 12.7462 11.8434C12.6374 11.8708 12.2104 11.977 11.5882 12.1144C10.7263 12.3048 9.4898 12.5551 8.20656 12.7387C6.53803 12.9774 4.79045 13.1033 3.68421 12.838C2.58309 12.5075 0.951426 10.3942 0.951426 10.3942C0.752144 10.197 0.611204 9.94846 0.544158 9.67613C0.477112 9.4038 0.486567 9.11822 0.571478 8.85092C0.65639 8.58362 0.813458 8.34499 1.02535 8.16136C1.23724 7.97772 1.49572 7.85623 1.77226 7.81027L7.56817 6.92892C7.76748 6.87187 7.93643 6.7388 8.03865 6.55836L10.5812 1.33034C10.7101 1.08022 10.9053 0.87042 11.1454 0.723951C11.3856 0.577482 11.6614 0.5 11.9426 0.5C12.2239 0.5 12.4997 0.577482 12.7398 0.723951C12.98 0.87042 13.1752 1.08022 13.304 1.33034L15.9367 6.56837C15.9367 6.92371 19.0436 7.28955 20.8835 7.50621C21.5847 7.58877 22.1019 7.64968 22.1931 7.68008C22.4729 7.71997 22.7361 7.83706 22.9532 8.01823C23.1702 8.1994 23.3325 8.43749 23.4219 8.70578C23.5113 8.97408 23.5242 9.26199 23.4592 9.53722C23.3942 9.81245 23.2539 10.0641 23.054 10.264L18.8397 14.4204C18.5691 14.4949 19.0939 17.1624 19.4503 18.9741C19.6213 19.8434 19.7536 20.5157 19.7406 20.6099C19.7983 20.8908 19.7756 21.1823 19.675 21.4508C19.5744 21.7194 19.4001 21.954 19.172 22.1278C18.944 22.3015 18.6715 22.4073 18.386 22.4328C18.1005 22.4584 17.8136 22.4028 17.5583 22.2724L12.333 19.5182C12.169 19.5182 12.1185 19.5182 12.0688 19.5244C12.0184 19.5306 11.9688 19.5431 11.8025 19.5683L6.6172 22.3325ZM21.8655 9.14206C21.8652 9.14207 21.8598 9.14114 21.8505 9.13919C21.8612 9.14106 21.8659 9.14204 21.8655 9.14206Z" fill="white" fill-opacity="0.7"/>
</g>
<path fill-rule="evenodd" clip-rule="evenodd" d="M11.9426 1C11.7533 1 11.5675 1.05217 11.4058 1.15082C11.2455 1.24856 11.115 1.3882 11.0281 1.55469L8.48143 6.79114L8.4737 6.8048C8.30689 7.09926 8.03115 7.31648 7.70576 7.40962L7.67498 7.41843L1.85118 8.30402C1.66671 8.33525 1.4943 8.41658 1.35281 8.53921C1.21054 8.66251 1.10505 8.82276 1.04801 9.0023C0.990977 9.18184 0.984626 9.37367 1.02966 9.5566C1.0747 9.73953 1.16936 9.90643 1.30317 10.0389L1.32684 10.0623L1.34711 10.0886L1.34777 10.0894L1.35067 10.0931L1.36324 10.1092C1.37457 10.1236 1.39168 10.1453 1.41405 10.1732C1.45881 10.2292 1.52451 10.3101 1.60697 10.4086C1.77225 10.6061 2.00303 10.8718 2.266 11.1463C2.5301 11.4221 2.82005 11.6998 3.10374 11.9253C3.38945 12.1523 3.63353 12.2975 3.81564 12.3553C4.40814 12.4944 5.24355 12.5154 6.19937 12.453C7.15326 12.3907 8.18741 12.2483 9.14707 12.0847C10.1055 11.9213 10.9824 11.7378 11.6199 11.5951C11.9385 11.5238 12.1968 11.4628 12.3751 11.4198C12.4642 11.3982 12.5333 11.3812 12.5799 11.3696L12.6325 11.3564L12.6456 11.3531L12.6487 11.3523L12.6612 11.3491L12.673 11.3467C12.8093 11.3187 12.9718 11.3052 13.1301 11.3503C13.2999 11.3986 13.5255 11.5433 13.5684 11.8333C13.6047 12.0782 13.481 12.2635 13.3964 12.3564C13.3007 12.4613 13.1792 12.5374 13.0548 12.5889L13.0452 12.5928L13.042 12.594L13.0301 12.5987L12.9817 12.618C12.9388 12.6352 12.8749 12.6612 12.7926 12.6953C12.6279 12.7636 12.3899 12.8646 12.0987 12.9946C11.5158 13.2548 10.7229 13.6298 9.88112 14.0893C9.03801 14.5496 8.15458 15.09 7.38674 15.6797C6.63011 16.2607 6.0151 16.8675 5.65092 17.4678C5.27464 18.5472 5.02339 19.6663 4.90212 20.8031L4.90117 20.8121L4.89989 20.8211C4.87304 21.0083 4.89814 21.1994 4.97245 21.3734C5.04675 21.5474 5.16739 21.6975 5.32115 21.8075C5.47491 21.9175 5.6559 21.9831 5.84434 21.9971C6.03145 22.0111 6.2188 21.9737 6.38623 21.889L11.6429 19.0868L11.7275 19.0739C11.8047 19.0622 11.854 19.0536 11.8904 19.0471C11.8945 19.0464 11.8988 19.0456 11.9033 19.0448C11.9329 19.0395 11.9695 19.0329 12.0057 19.0283C12.0877 19.0181 12.1706 19.0181 12.2986 19.0182C12.3097 19.0182 12.3212 19.0182 12.333 19.0182H12.4567L17.7884 21.8285C17.9591 21.9151 18.1507 21.9519 18.3414 21.9348C18.533 21.9177 18.7159 21.8467 18.869 21.73C19.0221 21.6134 19.1392 21.4558 19.2068 21.2754C19.2743 21.0951 19.2896 20.8993 19.2508 20.7106L19.2335 20.6266L19.2397 20.582C19.239 20.5754 19.238 20.5674 19.2368 20.5577C19.2306 20.5097 19.2198 20.4406 19.2042 20.3499C19.1731 20.1695 19.1265 19.9238 19.0696 19.6312C19.0361 19.4592 18.9992 19.2715 18.9602 19.0731C18.8673 18.6011 18.7625 18.0681 18.6635 17.5395C18.5232 16.7898 18.3917 16.0335 18.3208 15.4538C18.2858 15.1672 18.263 14.9044 18.2651 14.701C18.2661 14.6033 18.2727 14.4889 18.2993 14.3831C18.3125 14.3306 18.3371 14.2529 18.3876 14.1749C18.4179 14.1283 18.464 14.0722 18.5293 14.0242L22.7004 9.91044C22.7008 9.91008 22.7012 9.90973 22.7015 9.90937C22.8352 9.77531 22.9291 9.6067 22.9726 9.42231C23.0163 9.23743 23.0076 9.04404 22.9476 8.86382C22.8875 8.68361 22.7785 8.52373 22.6328 8.40209C22.487 8.28045 22.3103 8.20185 22.1225 8.17507L22.0778 8.16869L22.0487 8.15898C22.0446 8.15828 22.027 8.15461 21.9889 8.14846C21.9344 8.13969 21.8594 8.12905 21.7642 8.11654C21.5744 8.09157 21.3191 8.06105 21.0176 8.02546C20.9552 8.0181 20.891 8.01054 20.825 8.00277C20.256 7.93577 19.5614 7.85399 18.875 7.76256C18.1116 7.6609 17.3447 7.54558 16.7643 7.42279C16.4775 7.36211 16.2149 7.29531 16.0161 7.22055C15.9198 7.18435 15.8097 7.13592 15.7148 7.06887C15.6608 7.03069 15.5199 6.92287 15.4621 6.73741L12.8585 1.55735C12.7717 1.38969 12.6406 1.24908 12.4795 1.15082C12.3177 1.05217 12.132 1 11.9426 1ZM12.6831 11.6597C12.6831 11.6597 12.6828 11.66 12.682 11.6604L12.6831 11.6597ZM9.83882 12.978C9.66771 13.0092 9.49284 13.0402 9.31516 13.0705C8.3366 13.2373 7.26547 13.3855 6.26456 13.4508C5.27357 13.5156 4.31062 13.5024 3.56761 13.3242L3.55393 13.3209L3.54047 13.3169C3.17326 13.2067 2.80504 12.9652 2.48162 12.7082C2.14968 12.4444 1.82525 12.1319 1.5438 11.838C1.26121 11.543 1.01525 11.2597 0.840186 11.0505C0.752468 10.9458 0.682098 10.8591 0.633327 10.7981C0.608932 10.7676 0.589912 10.7436 0.576798 10.7269L0.575584 10.7253C0.323558 10.4673 0.144985 10.1463 0.0586548 9.79565C-0.0304014 9.43392 -0.0178439 9.0546 0.0949445 8.69954C0.207734 8.34449 0.416379 8.02748 0.69789 7.78351C0.979403 7.53954 1.32284 7.3781 1.6903 7.31704L1.69709 7.31591L7.45355 6.44061C7.51308 6.41805 7.56376 6.37648 7.59755 6.32211L10.1366 1.10132C10.3075 0.769592 10.5665 0.491376 10.8851 0.297085C11.2036 0.102793 11.5695 0 11.9426 0C12.3157 0 12.6816 0.102793 13.0002 0.297085C13.3187 0.491376 13.5776 0.769653 13.7485 1.10138L13.7508 1.10579L16.3502 6.27768C16.3557 6.27983 16.3616 6.28211 16.3679 6.28449C16.4944 6.33203 16.6974 6.38651 16.9713 6.44444C17.5123 6.5589 18.2476 6.67017 19.007 6.77132C19.6854 6.86167 20.3722 6.94254 20.942 7.00963C21.0079 7.01739 21.0722 7.02497 21.1348 7.03235C21.4352 7.06781 21.6971 7.0991 21.8946 7.12507C21.9931 7.13803 22.0792 7.15013 22.1479 7.16119C22.1873 7.16753 22.2432 7.17678 22.2964 7.19002C22.656 7.24731 22.9937 7.40076 23.2736 7.63438C23.5619 7.87508 23.7775 8.19136 23.8963 8.54774C24.015 8.90412 24.0322 9.28654 23.9458 9.65213C23.8595 10.0177 23.6731 10.352 23.4075 10.6176L23.4051 10.62L19.2651 14.703C19.2651 14.7057 19.2651 14.7084 19.265 14.7112C19.2636 14.8466 19.2797 15.0563 19.3134 15.3324C19.3802 15.8783 19.5065 16.608 19.6464 17.3555C19.7445 17.8795 19.8478 18.4046 19.9403 18.8749C19.9796 19.0746 20.017 19.2645 20.0512 19.4403C20.1081 19.7329 20.1566 19.9881 20.1897 20.1803C20.2061 20.2758 20.2197 20.361 20.2285 20.4298C20.2329 20.4639 20.2369 20.4991 20.2392 20.5323C20.2397 20.5397 20.2405 20.5509 20.241 20.5648C20.3038 20.9206 20.2702 21.2872 20.1432 21.6262C20.0096 21.9829 19.778 22.2947 19.475 22.5255C19.172 22.7563 18.81 22.8968 18.4307 22.9308C18.0513 22.9649 17.6701 22.891 17.3309 22.7177L17.3252 22.7148L12.2098 20.0185C12.1446 20.0189 12.1374 20.0197 12.1298 20.0206C12.1214 20.0217 12.1136 20.0231 12.0662 20.0315C12.0394 20.0363 12.0063 20.0422 11.9633 20.0492L6.84461 22.7779C6.51302 22.9472 6.14126 23.0221 5.76998 22.9944C5.39871 22.9667 5.04219 22.8375 4.73937 22.6209C4.43654 22.4043 4.19906 22.1086 4.05281 21.7662C3.90782 21.4267 3.85803 21.0542 3.90867 20.6887C4.04026 19.4611 4.31393 18.253 4.72416 17.0886L4.74024 17.043L4.76477 17.0013C5.21982 16.2276 5.96063 15.514 6.77767 14.8866C7.60052 14.2547 8.53206 13.6865 9.40194 13.2116C9.54936 13.1311 9.69525 13.0532 9.83882 12.978Z" fill="#C65300"/>
</g>
<defs>
<linearGradient id="paint0_linear_1746_196569" x1="19.6335" y1="18.6739" x2="5.26934" y2="4.31527" gradientUnits="userSpaceOnUse">
<stop stop-color="#FFB100"/>
<stop offset="1" stop-color="#FFEB37"/>
</linearGradient>
</defs>
</svg>
